<?xml version="1.0" encoding="UTF-8"?>
<svg xmlns="http://www.w3.org/2000/svg" viewBox="0 0 200 200">
  <circle cx="100" cy="100" r="92" fill="#5E6AD2"/>
  <g fill="#fff" transform="translate(100 100) scale(0.75) translate(-501.395 -142.97)">
    <path d="m581.81,150.92v-15.85l-18.91-3.32c-.6-3.27-1.47-6.54-2.63-9.76l14.73-12.35-7.92-13.72-18.05,6.58c-2.21-2.59-4.62-4.99-7.16-7.16l6.58-18.05-13.71-7.92-12.35,14.73c-3.14-1.12-6.41-2-9.76-2.6l-3.33-18.94h-15.83l-3.32,18.94c-3.33.6-6.6,1.49-9.77,2.62l-12.33-14.75-13.72,7.92,6.58,18.08c-2.53,2.15-4.91,4.54-7.13,7.14l-18.08-6.6-7.93,13.72,14.75,12.35c-1.13,3.18-2.01,6.46-2.6,9.74l-18.94,3.33v15.85l18.94,3.33c.59,3.27,1.46,6.54,2.6,9.74l-14.75,12.35,7.93,13.72,18.08-6.6c2.18,2.56,4.57,4.96,7.14,7.14l-6.6,18.08,13.72,7.92,12.33-14.75c3.18,1.13,6.46,2.01,9.77,2.62l3.32,18.93h15.83l3.33-18.94c3.35-.6,6.61-1.47,9.77-2.6l12.33,14.75,13.71-7.92-6.58-18.05c2.54-2.17,4.94-4.55,7.16-7.16l18.05,6.58,7.92-13.72-14.73-12.35c1.16-3.24,2.03-6.51,2.63-9.77l18.91-3.3Zm-44.46-7.8c0,9.87-3.57,18.49-10.62,25.61-6.99,7.04-15.5,10.62-25.33,10.62s-18.42-3.57-25.42-10.62c-6.99-7.06-10.53-15.68-10.53-25.61s3.54-18.55,10.53-25.61c7.04-7.1,15.6-10.7,25.42-10.7s18.29,3.6,25.33,10.7c7.04,7.12,10.62,15.73,10.62,25.61Z"/>
    <path d="m495.17,221.4h12.47l3.28-18.67,1.37-.25c3.24-.58,6.42-1.43,9.46-2.52l1.31-.47,12.15,14.53,10.8-6.24-6.48-17.77,1.06-.9c2.5-2.14,4.84-4.47,6.93-6.93l.9-1.06,17.77,6.48,6.24-10.81-14.51-12.16.47-1.31c1.1-3.05,1.95-6.24,2.55-9.46l.25-1.37,18.63-3.25v-12.49l-18.63-3.26-.25-1.37c-.6-3.24-1.46-6.41-2.55-9.44l-.47-1.31,14.52-12.17-6.24-10.81-17.77,6.48-.9-1.05c-2.15-2.51-4.48-4.84-6.94-6.94l-1.06-.9,6.48-17.77-10.8-6.24-12.16,14.51-1.31-.46c-3.1-1.1-6.28-1.95-9.45-2.52l-1.37-.25-3.28-18.66h-12.47l-3.27,18.66-1.37.25c-3.17.58-6.35,1.43-9.46,2.53l-1.31.47-12.15-14.53-10.81,6.24,6.48,17.8-1.06.9c-2.45,2.09-4.77,4.42-6.9,6.92l-.9,1.06-17.81-6.5-6.25,10.82,14.52,12.16-.47,1.31c-1.11,3.11-1.95,6.28-2.52,9.42l-.25,1.38-18.67,3.28v12.49l18.67,3.28.25,1.37c.57,3.19,1.42,6.36,2.52,9.42l.47,1.31-14.53,12.16,6.25,10.82,17.8-6.5.9,1.05c2.15,2.52,4.48,4.85,6.92,6.92l1.06.9-6.5,17.81,10.81,6.24,12.15-14.53,1.31.47c3.09,1.1,6.27,1.95,9.46,2.53l1.37.25,3.27,18.65Zm6.23-40.05c-10.42,0-19.45-3.77-26.84-11.21-7.37-7.45-11.11-16.54-11.11-27.02s3.74-19.57,11.11-27.01c7.44-7.5,16.47-11.3,26.84-11.3s19.32,3.8,26.75,11.29c7.43,7.51,11.2,16.59,11.2,27.01s-3.77,19.51-11.2,27.01c-7.38,7.44-16.38,11.21-26.76,11.21Z"/>
  </g>
</svg>
