<?xml version="1.0" encoding="UTF-8"?>
<svg xmlns="http://www.w3.org/2000/svg" viewBox="0 0 1139.76 285.05">
  <defs>
    <style>
      .cls-1 { fill: #fff; }
      .cls-2 { fill: #5E6AD2; }
    </style>
  </defs>
  <path class="cls-2" d="m142.53,0h854.71C1075.9,0,1139.76,63.86,1139.76,142.53h0c0,78.66-63.86,142.53-142.53,142.53H142.53C63.86,285.05,0,221.19,0,142.53H0C0,63.86,63.86,0,142.53,0Z"/>
  <g>
    <g>
      <path class="cls-1" d="m266.02,99.62c-11.9-11.9-26.33-17.92-42.89-17.92-8.74,0-17.29,2.01-25.4,6.01-6.58,3.27-12.33,7.68-17.12,13.18v-10.01c0-2.46-.93-4.65-2.74-6.46-1.81-1.81-3.98-2.73-6.46-2.73s-4.63.91-6.44,2.73c-1.83,1.83-2.74,4-2.74,6.46v137.09c0,2.46.93,4.63,2.74,6.44,1.81,1.83,3.98,2.74,6.44,2.74s4.65-.91,6.46-2.74c1.81-1.81,2.74-3.98,2.74-6.44v-43.71c10.87,12.72,25.16,19.15,42.52,19.15s31-6.03,42.89-17.92c11.88-11.9,17.92-26.32,17.92-42.88s-6.04-31.09-17.92-42.98Zm-42.89,85.4c-11.7,0-21.81-4.18-30.07-12.44-8.27-8.27-12.45-18.36-12.45-29.97s4.18-21.72,12.45-29.97c8.32-8.33,18.43-12.56,30.07-12.56s21.55,4.23,29.88,12.56c8.32,8.32,12.55,18.4,12.55,29.97s-4.23,21.64-12.55,29.97c-8.27,8.26-18.32,12.44-29.88,12.44Z"/>
      <path class="cls-1" d="m171.4,83.7c-1.94,0-3.59.7-5.03,2.14-1.45,1.45-2.16,3.1-2.16,5.05v137.09c0,1.93.71,3.58,2.16,5.03,1.44,1.45,3.08,2.16,5.03,2.16s3.61-.7,5.04-2.15c1.46-1.46,2.16-3.1,2.16-5.04v-49.13l3.52,4.12c10.47,12.24,24.26,18.44,41,18.44s29.97-5.83,41.48-17.34c11.5-11.52,17.34-25.47,17.34-41.46s-5.83-30.05-17.34-41.57c-11.5-11.5-25.46-17.33-41.48-17.33-8.45,0-16.7,1.95-24.52,5.8-6.35,3.15-11.9,7.43-16.49,12.7l-3.51,4.03v-15.35c0-1.92-.73-3.62-2.16-5.05-1.44-1.44-3.09-2.14-5.05-2.14Zm51.72,103.32c-12.25,0-22.84-4.38-31.48-13.02-8.65-8.65-13.04-19.21-13.04-31.39s4.39-22.75,13.04-31.39c8.71-8.72,19.3-13.15,31.48-13.15s22.57,4.42,31.29,13.15c8.71,8.71,13.13,19.27,13.13,31.39s-4.42,22.66-13.13,31.39c-8.66,8.64-19.19,13.03-31.3,13.03Z"/>
    </g>
    <g>
      <path class="cls-1" d="m400.13,90.88c0,1.21-.26,2.4-.77,3.53-.51,1.08-1.19,2.06-2.01,2.88-.81.81-1.75,1.47-2.8,1.98-1.08.53-2.26.79-3.5.79-11.62,0-21.75,4.23-30.07,12.56-8.26,8.26-12.45,18.34-12.45,29.97v51.61c0,2.46-.91,4.63-2.73,6.46-1.83,1.81-4,2.73-6.46,2.73s-4.65-.91-6.46-2.74c-1.81-1.81-2.74-3.98-2.74-6.44v-103.33c0-2.46.93-4.65,2.74-6.46,1.81-1.81,4-2.73,6.46-2.73s4.63.91,6.46,2.73c1.81,1.83,2.73,4,2.73,6.46v10.08c11.25-12.79,25.53-19.27,42.52-19.27,1.22,0,2.4.26,3.5.79,1.05.51,2,1.18,2.82,1.98.81.82,1.49,1.78,1.98,2.88.53,1.13.79,2.32.79,3.53Z"/>
      <path class="cls-1" d="m339.33,83.7c-1.96,0-3.61.7-5.05,2.14-1.43,1.43-2.16,3.13-2.16,5.05v103.33c0,1.93.71,3.58,2.16,5.03,1.44,1.45,3.09,2.16,5.05,2.16s3.59-.7,5.05-2.15c1.43-1.45,2.13-3.1,2.13-5.04v-51.61c0-12.17,4.39-22.73,13.04-31.39,8.71-8.72,19.3-13.15,31.48-13.15.94,0,1.82-.2,2.63-.59.86-.42,1.62-.96,2.26-1.6.66-.66,1.2-1.44,1.62-2.32.38-.85.58-1.76.58-2.68s-.2-1.83-.6-2.69c-.39-.86-.92-1.64-1.6-2.32-.64-.63-1.41-1.17-2.27-1.59-.81-.39-1.7-.59-2.63-.59-16.38,0-30.18,6.25-41.02,18.59l-3.5,3.98v-15.39c0-1.94-.7-3.59-2.15-5.05-1.44-1.43-3.1-2.13-5.04-2.13Z"/>
    </g>
    <g>
      <path class="cls-1" d="m713.12,90.88c0,1.27-.28,2.52-.84,3.73l-45.25,101.82c-.03.08-.14.37-.28.74-.12.29-.23.64-.34,1.04l-.06.17c-.96,2.29-3.18,5.02-8.38,5.02s-7.44-2.73-8.38-5.02l-.09-.29c-.02-.12-.12-.54-.54-1.8l-45.2-101.71c-.56-1.16-.84-2.42-.84-3.7,0-2.46.91-4.63,2.74-6.46,1.81-1.81,3.98-2.73,6.44-2.73,3.84,0,6.72,1.89,8.36,5.47l37.5,84.1,37.59-84.1c1.47-3.56,4.37-5.47,8.36-5.47,2.46,0,4.63.91,6.46,2.73,1.81,1.83,2.73,4,2.73,6.46Z"/>
      <path class="cls-1" d="m651.48,197.69c1.04,2.46,3.23,3.71,6.5,3.71s5.46-1.23,6.53-3.77c.13-.49.26-.88.41-1.22l.11-.29c.08-.22.14-.38.17-.43l45.27-101.88c.45-.96.67-1.94.67-2.92,0-1.94-.7-3.59-2.15-5.05-1.44-1.43-3.1-2.13-5.04-2.13-3.16,0-5.36,1.42-6.52,4.23l-39.44,88.24-39.33-88.19c-1.3-2.83-3.5-4.28-6.54-4.28-1.95,0-3.59.7-5.03,2.14-1.45,1.45-2.16,3.1-2.16,5.05,0,1,.21,1.95.64,2.84l45.26,101.85.03.09c.39,1.16.53,1.66.59,1.94l.03.09Z"/>
    </g>
    <g>
      <path class="cls-1" d="m860.55,87.35c-.51-1.1-1.18-2.06-2-2.88-.82-.81-1.77-1.47-2.8-1.98-1.1-.53-2.28-.79-3.5-.79-2.46,0-4.65.91-6.46,2.73-1.81,1.81-2.74,4-2.74,6.46v9.99c-10.98-12.73-25.26-19.18-42.52-19.18s-31.09,6.03-42.98,17.92c-11.82,11.82-17.83,26.29-17.83,42.98s6.01,31.06,17.83,42.88c11.9,11.9,26.35,17.92,42.98,17.92,8.67,0,17.18-2.01,25.31-6.01,6.69-3.32,12.45-7.75,17.21-13.18v10.01c0,2.46.93,4.63,2.74,6.44,1.81,1.83,3.98,2.74,6.46,2.74,1.22,0,2.4-.26,3.5-.79,1.04-.51,1.98-1.18,2.8-2,.82-.81,1.49-1.78,2-2.87.53-1.13.79-2.32.79-3.53v-103.33c0-1.21-.26-2.4-.79-3.53Zm-60.02,12.72c11.56,0,21.64,4.23,29.97,12.56,8.33,8.32,12.55,18.4,12.55,29.97s-4.21,21.64-12.55,29.97c-8.26,8.26-18.34,12.44-29.97,12.44s-21.81-4.18-30.07-12.44c-8.27-8.27-12.45-18.36-12.45-29.97s4.18-21.72,12.45-29.97c8.32-8.33,18.43-12.56,30.07-12.56Z"/>
      <path class="cls-1" d="m845.05,178.89v15.33c0,1.93.71,3.58,2.16,5.03,1.44,1.45,3.09,2.16,5.04,2.16.93,0,1.82-.2,2.64-.59.83-.41,1.6-.96,2.25-1.61.64-.63,1.18-1.4,1.6-2.3.4-.85.6-1.75.6-2.68v-103.33c0-.93-.2-1.83-.6-2.69h0c-.41-.89-.95-1.66-1.6-2.31-.65-.64-1.42-1.18-2.28-1.6-.8-.38-1.69-.58-2.62-.58-1.96,0-3.6.7-5.04,2.14-1.43,1.43-2.16,3.13-2.16,5.05v15.37l-3.51-4.07c-10.58-12.26-24.37-18.48-41-18.48s-30.07,5.83-41.57,17.34c-11.44,11.44-17.24,25.43-17.24,41.57s5.8,30.02,17.24,41.46c11.5,11.5,25.49,17.34,41.57,17.34,8.37,0,16.59-1.95,24.43-5.8,6.41-3.17,11.99-7.45,16.58-12.7l3.51-4.01Zm-44.52,8.13c-12.25,0-22.84-4.38-31.48-13.02-8.65-8.65-13.04-19.21-13.04-31.39s4.39-22.75,13.04-31.39c8.71-8.72,19.3-13.15,31.48-13.15s22.66,4.42,31.39,13.15c8.71,8.7,13.13,19.26,13.13,31.39s-4.42,22.67-13.13,31.39-19.2,13.02-31.39,13.02Z"/>
    </g>
    <g>
      <path class="cls-1" d="m977.53,90.88c0,1.22-.26,2.4-.79,3.53-.5,1.08-1.16,2.06-2,2.88-.81.81-1.75,1.47-2.8,1.98-1.08.53-2.26.79-3.5.79-11.62,0-21.75,4.23-30.07,12.56-8.26,8.26-12.45,18.34-12.45,29.97v51.61c0,2.46-.91,4.63-2.74,6.46-1.81,1.81-3.98,2.73-6.44,2.73s-4.65-.91-6.46-2.74c-1.81-1.81-2.74-3.98-2.74-6.44v-103.33c0-2.46.93-4.65,2.74-6.46,1.81-1.81,4-2.73,6.46-2.73s4.63.91,6.44,2.73c1.83,1.83,2.74,4,2.74,6.46v10.08c11.25-12.79,25.53-19.27,42.52-19.27,1.22,0,2.4.26,3.5.79,1.05.51,2,1.18,2.82,1.98.82.82,1.49,1.8,1.98,2.88.53,1.13.79,2.31.79,3.53Z"/>
      <path class="cls-1" d="m916.74,83.7c-1.96,0-3.61.7-5.05,2.14-1.43,1.43-2.16,3.13-2.16,5.05v103.33c0,1.93.71,3.58,2.16,5.03,1.44,1.45,3.09,2.16,5.04,2.16s3.59-.7,5.03-2.14c1.45-1.45,2.16-3.1,2.16-5.04v-51.61c0-12.17,4.39-22.74,13.04-31.39,8.71-8.72,19.3-13.15,31.48-13.15.94,0,1.82-.2,2.63-.59.86-.42,1.62-.95,2.26-1.6.66-.65,1.19-1.41,1.59-2.3.41-.88.61-1.76.61-2.7s-.2-1.82-.6-2.69c-.41-.89-.94-1.67-1.58-2.31-.66-.64-1.43-1.19-2.28-1.6-.81-.39-1.7-.59-2.63-.59-16.38,0-30.18,6.25-41.02,18.59l-3.5,3.99v-15.39c0-1.94-.71-3.59-2.16-5.05s-3.08-2.14-5.03-2.14Z"/>
    </g>
    <g id="gear">
      <g>
        <path class="cls-1" d="m581.81,150.92v-15.85l-18.91-3.32c-.6-3.27-1.47-6.54-2.63-9.76l14.73-12.35-7.92-13.72-18.05,6.58c-2.21-2.59-4.62-4.99-7.16-7.16l6.58-18.05-13.71-7.92-12.35,14.73c-3.14-1.12-6.41-2-9.76-2.6l-3.33-18.94h-15.83l-3.32,18.94c-3.33.6-6.6,1.49-9.77,2.62l-12.33-14.75-13.72,7.92,6.58,18.08c-2.53,2.15-4.91,4.54-7.13,7.14l-18.08-6.6-7.93,13.72,14.75,12.35c-1.13,3.18-2.01,6.46-2.6,9.74l-18.94,3.33v15.85l18.94,3.33c.59,3.27,1.46,6.54,2.6,9.74l-14.75,12.35,7.93,13.72,18.08-6.6c2.18,2.56,4.57,4.96,7.14,7.14l-6.6,18.08,13.72,7.92,12.33-14.75c3.18,1.13,6.46,2.01,9.77,2.62l3.32,18.93h15.83l3.33-18.94c3.35-.6,6.61-1.47,9.77-2.6l12.33,14.75,13.71-7.92-6.58-18.05c2.54-2.17,4.94-4.55,7.16-7.16l18.05,6.58,7.92-13.72-14.73-12.35c1.16-3.24,2.03-6.51,2.63-9.77l18.91-3.3Zm-44.46-7.8c0,9.87-3.57,18.49-10.62,25.61-6.99,7.04-15.5,10.62-25.33,10.62s-18.42-3.57-25.42-10.62c-6.99-7.06-10.53-15.68-10.53-25.61s3.54-18.55,10.53-25.61c7.04-7.1,15.6-10.7,25.42-10.7s18.29,3.6,25.33,10.7c7.04,7.12,10.62,15.73,10.62,25.61Z"/>
        <path class="cls-1" d="m495.17,221.4h12.47l3.28-18.67,1.37-.25c3.24-.58,6.42-1.43,9.46-2.52l1.31-.47,12.15,14.53,10.8-6.24-6.48-17.77,1.06-.9c2.5-2.14,4.84-4.47,6.93-6.93l.9-1.06,17.77,6.48,6.24-10.81-14.51-12.16.47-1.31c1.1-3.05,1.95-6.24,2.55-9.46l.25-1.37,18.63-3.25v-12.49l-18.63-3.26-.25-1.37c-.6-3.24-1.46-6.41-2.55-9.44l-.47-1.31,14.52-12.17-6.24-10.81-17.77,6.48-.9-1.05c-2.15-2.51-4.48-4.84-6.94-6.94l-1.06-.9,6.48-17.77-10.8-6.24-12.16,14.51-1.31-.46c-3.1-1.1-6.28-1.95-9.45-2.52l-1.37-.25-3.28-18.66h-12.47l-3.27,18.66-1.37.25c-3.17.58-6.35,1.43-9.46,2.53l-1.31.47-12.15-14.53-10.81,6.24,6.48,17.8-1.06.9c-2.45,2.09-4.77,4.42-6.9,6.92l-.9,1.06-17.81-6.5-6.25,10.82,14.52,12.16-.47,1.31c-1.11,3.11-1.95,6.28-2.52,9.42l-.25,1.38-18.67,3.28v12.49l18.67,3.28.25,1.37c.57,3.19,1.42,6.36,2.52,9.42l.47,1.31-14.53,12.16,6.25,10.82,17.8-6.5.9,1.05c2.15,2.52,4.48,4.85,6.92,6.92l1.06.9-6.5,17.81,10.81,6.24,12.15-14.53,1.31.47c3.09,1.1,6.27,1.95,9.46,2.53l1.37.25,3.27,18.65Zm6.23-40.05c-10.42,0-19.45-3.77-26.84-11.21-7.37-7.45-11.11-16.54-11.11-27.02s3.74-19.57,11.11-27.01c7.44-7.5,16.47-11.3,26.84-11.3s19.32,3.8,26.75,11.29c7.43,7.51,11.2,16.59,11.2,27.01s-3.77,19.51-11.2,27.01c-7.38,7.44-16.38,11.21-26.76,11.21Z"/>
      </g>
    </g>
  </g>
</svg>
